<?xml version="1.0" encoding="UTF-8"?>
<svg id="Layer_1" data-name="Layer 1" xmlns="http://www.w3.org/2000/svg" viewBox="0 0 35 30">
  <defs>
    <style>
      .cls-1 {
        fill: #fff;
        stroke-width: 0px;
      }
    </style>
  </defs>
  <g>
    <path class="cls-1" d="M22.24,27.67l-.29-.82.2-.31.14-.47.41-.99.24-1.17,1.33-3.68.13-.66.89-2.15c.05-.38.09-.62.11-.74.04-.23.13-.4.25-.52.03-.03.07-.06.12-.09l-.02-.06.3-1.17.08.04c0-.08.02-.16.05-.25l.17-.38.34-.83.26-.96.52-1.28v.02s.12-.32.12-.32h.1s-.1-.17-.1-.17l.83-2.28.18-.1s0-.08,0-.12c0-.16.04-.31.11-.45l.5-1.2.15-.68.2-.5.23-.78.18.05.04-.47.16-.7.04-.45.18-.13c.06-.05.08-.09.09-.19l.04-.26.24-.12c.4-.19.78-.29,1.13-.29.25,0,.45.04.6.13.17.09.33.26.46.51l.13.23-.31.6-.17.42-.7,1.29h-.16l-.08.47-.64,1.53-.14.56c-.09.32-.18.5-.33.62l.03.33-.85,1.82-.1.31-.16.61-.16.04s.02.25.02.25l-.43,1.19c-.04.22-.14.48-.29.7-.08.1-.14.18-.17.23l.14.16-.13.31-.23.5-.16.65-.29.68c-.11.32-.19.52-.21.57-.05.08-.11.16-.21.24.02.08.03.17.03.26,0,.06,0,.19-.03.38l-.04.4-.26.03.06.3-.26.71-.03.2-.11.58-.26-.09c0,.08,0,.16-.01.26l-.11.62-.39,1.04-.25.86-.05-.02.03.3-.1.44-.13.65-.32.98-.07.63-.09.59-.07.02c-.01.09-.04.17-.08.25l.09.11-.03.21c-.06.43-.23.74-.48.93-.23.17-.56.27-1.02.31l-.52.11-.59-.35Z"/>
    <path class="cls-1" d="M31.88,2.51c.16,0,.28.02.37.07.08.04.17.15.26.31l-.19.36-.19.47-.54.98h-.24l-.08.23-.11.6-.62,1.47-.16.63c-.05.2-.11.32-.16.36l-.2.19.04.44-.79,1.7-.12.36-.09.35c-.11.03-.18.06-.21.09-.04.04-.05.11-.05.21,0,.03,0,.14.03.33l-.39,1.08c-.04.23-.12.42-.23.58-.21.25-.31.43-.31.55,0,.07.04.15.11.23l-.23.5-.19.74-.27.6c-.11.31-.17.49-.19.53-.02.04-.1.1-.22.18-.02,0-.04.02-.08.05-.04.02-.07.04-.09.06l.13.33s.01.06.01.12c0,.05,0,.16-.03.32-.24.03-.36.11-.36.24l.09.5-.21.58-.05.28c-.1-.04-.16-.05-.19-.05-.07,0-.12.05-.14.14-.02.09-.04.34-.06.73l-.11.55-.36.96-.09.32-.11-.05-.16.42.05.6-.08.36-.13.66-.31.92-.09.72-.04.27-.17.05c.03.07.04.12.04.13,0,.04.01.08.01.13s-.02.1-.07.15l-.16-.13v.24c0,.06.08.17.2.33-.04.29-.14.5-.29.61-.15.11-.4.18-.76.21l-.39.08-.27-.16-.15-.42.11-.16.16-.55.39-.94.27-1.26,1.31-3.62.15-.74.88-2.12c.05-.4.09-.66.11-.78.02-.12.06-.2.1-.24.04-.04.17-.12.39-.23l-.11-.31.11-.42c.15.08.23.12.24.12.11,0,.16-.17.16-.52l-.12-.08c-.02-.08-.03-.14-.03-.17s0-.08.03-.13l.15-.33.35-.84.28-1.02.16-.39c.04.06.09.09.13.09.02,0,.07-.08.16-.23,0-.04.05-.11.12-.19l-.13-.28.09-.27c.22-.03.33-.12.33-.27,0-.03,0-.07-.01-.12-.04-.11-.08-.21-.13-.29l.68-1.88.35-.19c-.05-.16-.08-.29-.08-.38,0-.08.02-.16.05-.23l.51-1.23.17-.76.17-.42.11-.36.19.05.08-.13.05-.32.05-.59.15-.63.03-.29c.1-.07.17-.14.21-.21.04-.07.07-.17.09-.31.33-.16.63-.24.91-.24M31.88,1.51c-.43,0-.88.11-1.35.34l-.48.24-.06.45-.26.19-.05.46-.02.23-.13.56h0s-.08-.01-.08-.01l-.28.95-.09.31-.15.36-.03.08-.02.08-.16.68-.47,1.13c-.07.14-.11.29-.13.45l-.09.05-.13.36-.68,1.88-.16.45.03.06-.42,1.01-.16.39-.02.06-.02.06-.27.96-.32.79-.04.09-.12-.06-.32,1.23-.11.42-.02.09c-.19.19-.31.44-.37.76-.02.11-.06.35-.1.7l-.83,1.99-.04.09-.02.1-.13.66-1.29,3.55-.02.07v.07s-.26,1.17-.26,1.17l-.35.85-.02.05-.02.05-.12.4-.02.03-.28.42.17.47.15.42.12.34.31.18.27.16.33.2.38-.08.33-.07c.53-.05.92-.18,1.22-.4.36-.27.59-.7.67-1.26l.04-.29h.01s.09-.63.09-.63l.04-.27.08-.65.28-.83.02-.06v-.06s.15-.66.15-.66l.08-.34.03-.15v-.14s.16-.61.16-.61l.08-.29.35-.93.03-.08.02-.08.06-.3.22.08.22-1.15.04-.2.19-.5.06-.16.17-.02.1-.8c.02-.21.03-.36.03-.43,0-.02,0-.05,0-.08.05-.05.09-.11.12-.18.05-.09.09-.18.25-.65l.25-.56.03-.08.02-.08.17-.65.19-.41.27-.59-.1-.12c.14-.23.25-.49.31-.79l.36-1.02.05-.14h.06s.16-.58.16-.58l.09-.32.09-.28.77-1.65.11-.24-.02-.25c.15-.2.23-.44.29-.66l.15-.58.59-1.41.04-.1.02-.11h0s.04,0,.04,0l.28-.52.54-.98.03-.05.02-.06.17-.42.17-.32.25-.48-.26-.47c-.19-.34-.41-.57-.67-.71-.23-.12-.51-.18-.83-.18h0Z"/>
  </g>
  <g>
    <path class="cls-1" d="M12.23,27.67l-.29-.82.2-.31.14-.48.41-.99.24-1.17,1.33-3.68.13-.66.89-2.15c.05-.38.09-.63.11-.74.04-.23.12-.4.25-.52.03-.03.07-.06.12-.09l-.02-.06.3-1.17.08.04c0-.08.02-.16.05-.25l.17-.38.34-.83.26-.96.52-1.28v.02s.12-.32.12-.32h.1s-.1-.17-.1-.17l.83-2.28.18-.1s0-.08,0-.12c0-.16.04-.31.11-.45l.5-1.2.15-.68.2-.5.23-.78.17.05.04-.47.16-.7.04-.45.18-.13c.06-.05.08-.09.09-.18l.04-.27.24-.12c.4-.19.78-.29,1.13-.29.25,0,.44.04.6.12.18.09.32.25.46.51l.13.23-.31.6-.17.42-.7,1.29h-.16l-.08.47-.64,1.52-.14.56c-.09.32-.18.5-.33.62l.03.33-.85,1.82-.1.31-.16.6-.16.04s.02.25.02.25l-.43,1.19c-.04.22-.14.48-.29.7-.08.1-.14.18-.17.23l.15.16-.13.31-.23.5-.16.65-.29.68c-.11.32-.19.52-.21.57-.05.08-.11.16-.21.24.02.07.03.17.03.26,0,.06,0,.19-.03.38l-.04.4-.26.03.06.3-.26.71-.03.2-.11.58-.25-.09c0,.08,0,.16-.01.26l-.12.62-.38,1.04-.25.86-.05-.03.03.31-.1.44-.13.65-.32.98-.07.63-.09.59-.07.02c-.01.09-.04.17-.08.25l.09.11-.03.21c-.06.43-.23.74-.48.93-.23.17-.56.27-1.02.31l-.52.11-.59-.35Z"/>
    <path class="cls-1" d="M21.87,2.51c.16,0,.28.02.37.07.08.04.17.15.26.31l-.19.36-.19.47-.54.98h-.24l-.08.23-.11.6-.62,1.47-.16.63c-.05.2-.11.32-.16.36l-.2.19.04.44-.79,1.7-.12.36-.09.35c-.11.03-.18.06-.21.09-.04.04-.05.11-.05.21,0,.03,0,.14.03.33l-.39,1.08c-.04.23-.12.42-.23.58-.21.25-.31.43-.31.55,0,.07.04.15.11.23l-.23.5-.19.74-.27.6c-.11.31-.17.49-.19.53-.02.04-.1.1-.22.18-.02,0-.04.02-.08.05-.04.02-.07.04-.09.06l.13.33s.01.06.01.12c0,.05,0,.16-.03.32-.24.03-.36.11-.36.24l.09.5-.21.58-.05.28c-.1-.04-.16-.05-.19-.05-.07,0-.12.05-.14.14-.02.09-.04.34-.06.73l-.11.55-.36.96-.09.32-.11-.05-.16.42.05.6-.08.36-.13.66-.31.92-.09.72-.04.27-.17.05c.03.07.04.12.04.13,0,.04.01.08.01.13s-.02.1-.07.15l-.16-.13v.24c0,.06.08.17.2.33-.04.29-.14.5-.29.61-.15.11-.4.18-.76.21l-.39.08-.27-.16-.15-.42.11-.16.16-.55.39-.94.27-1.26,1.31-3.62.15-.74.88-2.12c.05-.4.09-.66.11-.78.02-.12.06-.2.1-.24.04-.04.17-.12.39-.23l-.11-.31.11-.42c.15.08.23.12.24.12.11,0,.16-.17.16-.52l-.12-.08c-.02-.08-.03-.14-.03-.17s0-.08.03-.13l.15-.33.35-.84.28-1.02.16-.39c.04.06.09.09.13.09.02,0,.07-.08.16-.23,0-.04.05-.11.12-.19l-.13-.28.09-.27c.22-.03.33-.12.33-.27,0-.03,0-.07-.01-.12-.04-.11-.08-.21-.13-.29l.68-1.88.35-.19c-.05-.16-.08-.29-.08-.38,0-.08.02-.16.05-.23l.51-1.23.17-.76.17-.42.11-.36.19.05.08-.13.05-.32.05-.59.15-.63.03-.29c.1-.07.17-.14.21-.21.04-.07.07-.17.09-.31.33-.16.63-.24.91-.24M21.87,1.51c-.43,0-.88.11-1.35.34l-.48.23-.06.45-.26.19-.05.46-.02.23-.13.56h0s-.08-.01-.08-.01l-.28.95-.09.31-.15.36-.03.08-.02.08-.16.68-.47,1.13c-.07.14-.11.29-.13.45l-.09.05-.13.36-.68,1.88-.16.45.03.06-.42,1.01-.16.39-.02.06-.02.06-.27.96-.32.79-.04.09-.12-.06-.32,1.23-.11.42-.02.09c-.19.19-.31.44-.37.76-.02.12-.06.35-.1.7l-.83,1.99-.04.09-.02.1-.13.66-1.29,3.55-.02.07v.07s-.26,1.17-.26,1.17l-.35.85-.02.05-.02.05-.12.4-.02.03-.28.42.17.47.15.42.12.34.31.18.27.16.33.2.38-.08.33-.07c.53-.05.92-.18,1.22-.4.36-.27.59-.7.67-1.26l.04-.29h.01s.09-.63.09-.63l.04-.27.08-.65.28-.83.02-.06v-.06s.15-.66.15-.66l.08-.34.03-.15v-.14s.16-.61.16-.61l.08-.29.35-.93.03-.08.02-.08.06-.3.22.08.22-1.16.04-.2.18-.5.06-.16.17-.02.1-.8c.02-.22.03-.36.03-.43,0-.03,0-.05,0-.08.05-.06.09-.12.13-.19.04-.08.08-.16.25-.64l.25-.56.03-.08.02-.08.17-.65.19-.41.27-.59-.1-.12c.14-.23.25-.49.31-.79l.36-1.02.05-.14h.06s.16-.58.16-.58l.09-.32.09-.28.77-1.65.11-.24-.02-.25c.15-.2.23-.44.29-.66l.15-.58.59-1.41.04-.1.02-.11h0s.04,0,.04,0l.28-.52.54-.98.03-.05.02-.06.17-.42.17-.32.25-.48-.26-.47c-.19-.34-.41-.57-.67-.71-.23-.12-.51-.18-.83-.18h0Z"/>
  </g>
  <g>
    <path class="cls-1" d="M2.23,27.67l-.29-.82.2-.31.14-.48.41-.99.24-1.17,1.33-3.68.13-.66.89-2.15c.05-.38.09-.63.11-.74.03-.15.08-.36.25-.52.03-.03.06-.05.12-.09l-.02-.06.3-1.17.08.04c0-.08.02-.16.05-.25l.17-.38.34-.83.26-.96.53-1.29h.01s.11-.3.11-.3h.1s-.1-.18-.1-.18l.83-2.28.18-.1s0-.08,0-.12c0-.16.04-.31.11-.45l.5-1.2.15-.68.2-.5.23-.78.17.05.04-.47.16-.7.04-.45.18-.13c.06-.05.08-.09.09-.18l.04-.27.24-.12c.4-.19.78-.29,1.13-.29.25,0,.44.04.6.12.18.09.32.25.46.51l.13.23-.31.6-.17.42-.7,1.29h-.16l-.08.47-.64,1.53-.14.56c-.09.32-.18.5-.32.62h0s.03.34.03.34l-.85,1.82-.1.31-.16.6-.16.04s.02.25.02.25l-.42,1.19c-.04.23-.14.49-.29.7-.08.1-.14.18-.17.23l.14.16-.13.31-.23.5-.16.65-.3.68c-.11.32-.19.52-.21.57-.04.08-.11.15-.21.24.03.08.03.18.03.26,0,.06,0,.19-.03.38l-.05.4-.26.03.06.3-.26.71-.03.2-.11.58-.26-.09c0,.08,0,.16-.01.26l-.12.62-.38,1.04-.25.86-.05-.03.03.31-.1.44-.13.65-.32.98-.07.63-.09.59-.07.02c-.01.09-.04.17-.08.25l.09.11-.03.21c-.06.42-.22.74-.48.93-.23.17-.56.27-1.02.31l-.51.11-.59-.35Z"/>
    <path class="cls-1" d="M11.87,2.51c.16,0,.28.02.37.07.08.04.17.15.26.31l-.19.36-.19.47-.54.98h-.24l-.08.23-.11.6-.62,1.47-.16.63c-.05.2-.11.32-.16.36l-.2.19.04.44-.79,1.7-.12.36-.09.35c-.11.03-.18.06-.21.09-.04.04-.05.11-.05.21,0,.03,0,.14.03.33l-.39,1.08c-.04.23-.12.42-.23.58-.21.25-.31.43-.31.55,0,.07.04.15.11.23l-.23.5-.19.74-.27.6c-.11.31-.17.49-.19.53-.02.04-.1.1-.22.18-.02,0-.04.02-.08.05-.04.02-.07.04-.09.06l.13.33s.01.06.01.12c0,.05,0,.16-.03.32-.24.03-.36.11-.36.24l.09.5-.21.58-.05.28c-.1-.04-.16-.05-.19-.05-.07,0-.12.05-.14.14-.02.09-.04.34-.06.73l-.11.55-.36.96-.09.32-.11-.05-.16.42.05.6-.08.36-.13.66-.31.92-.09.72-.04.27-.17.05c.03.07.04.12.04.13,0,.04.01.08.01.13s-.02.1-.07.15l-.16-.13v.24c0,.06.08.17.2.33-.04.29-.14.5-.29.61-.15.11-.4.18-.76.21l-.39.08-.27-.16-.15-.42.11-.16.16-.55.39-.94.27-1.26,1.31-3.62.15-.74.88-2.12c.05-.4.09-.66.11-.78.02-.12.06-.2.1-.24.04-.04.17-.12.39-.23l-.11-.31.11-.42c.15.08.23.12.24.12.11,0,.16-.17.16-.52l-.12-.08c-.02-.08-.03-.14-.03-.17s0-.08.03-.13l.15-.33.35-.84.28-1.02.16-.39c.04.06.09.09.13.09.02,0,.07-.08.16-.23,0-.04.05-.11.12-.19l-.13-.28.09-.27c.22-.03.33-.12.33-.27,0-.03,0-.07-.01-.12-.04-.11-.08-.21-.13-.29l.68-1.88.35-.19c-.05-.16-.08-.29-.08-.38,0-.08.02-.16.05-.23l.51-1.23.17-.76.17-.42.11-.36.19.05.08-.13.05-.32.05-.59.15-.63.03-.29c.1-.07.17-.14.21-.21.04-.07.07-.17.09-.31.33-.16.63-.24.91-.24M11.87,1.51c-.43,0-.88.11-1.35.34l-.48.23-.06.45-.26.19-.05.46-.02.22-.13.56h0s-.08-.01-.08-.01l-.28.95-.09.31-.15.37-.03.08-.02.08-.16.68-.47,1.13c-.07.14-.11.29-.13.45l-.09.05-.13.36-.68,1.88-.16.45.03.06-.42,1.01-.16.39-.02.06-.02.06-.27.96-.32.79-.04.09-.12-.06-.32,1.23-.11.42-.02.09c-.19.19-.31.44-.37.77-.02.11-.06.35-.1.7l-.83,1.99-.04.09-.02.1-.13.66-1.29,3.55-.02.07v.07s-.26,1.17-.26,1.17l-.35.85-.02.05-.02.05-.12.4-.02.03-.28.42.17.47.15.42.12.34.31.18.27.16.33.2.38-.08.33-.07c.53-.05.92-.18,1.22-.4.36-.27.59-.7.67-1.26l.04-.29h0s.09-.62.09-.62l.04-.27.08-.65.28-.83.02-.06v-.06s.15-.66.15-.66l.08-.35.03-.15v-.14s.16-.61.16-.61l.08-.29.35-.93.03-.08.02-.08.06-.3.22.08.22-1.15.04-.2.19-.5.06-.16.17-.02.1-.8c.02-.22.03-.36.03-.43,0-.03,0-.05,0-.08.05-.05.09-.11.12-.18.05-.09.09-.19.25-.65l.25-.56.03-.08.02-.08.17-.65.19-.41.27-.59-.1-.12c.14-.23.25-.49.31-.79l.37-1.02.05-.14h.06s.16-.58.16-.58l.09-.32.09-.28.77-1.65.11-.24-.02-.25c.15-.2.23-.44.29-.66l.15-.57.59-1.41.04-.1.02-.11h0s.04,0,.04,0l.28-.52.54-.98.03-.05.02-.06.17-.42.17-.32.25-.48-.26-.47c-.19-.34-.41-.57-.67-.71-.23-.12-.51-.18-.83-.18h0Z"/>
  </g>
</svg>