<?xml version="1.0" encoding="UTF-8"?>
<svg id="Layer_1" data-name="Layer 1" xmlns="http://www.w3.org/2000/svg" viewBox="0 0 30 30">
  <defs>
    <style>
      .cls-1 {
        fill: #fff;
        stroke-width: 0px;
      }
    </style>
  </defs>
  <g>
    <path class="cls-1" d="M22,26.3c-.18,0-.34-.03-.48-.08-.3-.12-.54-.37-.72-.76l-.09-.19.05-.13c-.07-.07-.12-.15-.15-.22h-.08l-.25-.53-.3-.68-.51-.71-.56-1.03-.06-.31-.04.04-.5-.78-.6-.79-.3-.57c-.05-.13-.09-.24-.12-.33l-.21.15-.28-.5-.13-.25-.41-.53-.03-.3-.18.03-.23-.36c-.07-.18-.12-.3-.14-.36-.02-.07-.04-.16-.04-.26-.13-.05-.21-.1-.27-.16-.04-.04-.17-.21-.39-.52l-.4-.47-.44-.72-.31-.34-.22-.25.1-.21s-.1-.08-.2-.15c-.23-.18-.4-.4-.54-.67l-.7-.95s-.05-.24-.06-.28h-.19s-.12-.21-.12-.21l-.19-.31-.2-.29-1.29-1.46-.06-.33h-.03c-.15-.08-.29-.23-.46-.5l-.34-.56-1-1.22-.21-.43-.15.04-1-.99-.35-.44-.44-.45.06-.26c.06-.28.16-.48.3-.62.13-.12.31-.22.54-.29.2-.06.41-.09.64-.09.17,0,.34.02.53.05l.27.04.11.25c.04.09.07.12.07.12l.22.08.16.24.11.28.29.5.2.5.15-.1.48.73.25.31.43.75.79.97c.08.08.16.22.2.37.01.04.02.08.03.12l.2.04,1.44,1.95-.05.18h.06s.24.26.24.26h0s.83,1.01.83,1.01l.59.95.54.66.23.27c.08.11.12.19.15.26l.07-.06.62,1.04v.07c.05.02.09.03.13.05.17.08.29.22.4.43.05.11.16.33.32.68l1.4,1.73.4.75,2.24,3.04.65,1.19.59.71.3.46.28.24-.05.87-.47.5-.59.05c-.16.04-.35.06-.53.06Z"/>
    <path class="cls-1" d="M7.72,4.21c.14,0,.29.01.45.04.06.12.11.21.17.27.06.06.15.11.26.15l.11.28.32.56.22.55.14.29.11.11.17-.1.21.32.28.35.38.68.84,1.04c.05.06.09.13.12.2.03.09.03.21.03.38l.39.08,1.19,1.61c-.03.1-.04.21-.05.32,0,.05.01.09.02.12.03.12.12.17.27.17.04,0,.08,0,.12-.01l.17.23-.05.31c.09.06.15.11.17.15.12.12.2.17.22.17,0,0,0,0,0,0,.04-.01.08-.06.1-.13l.26.33.56.9.57.71.24.28s.05.09.06.12c0,.03.02.09.02.17l-.09.11c.09.31.18.46.28.46,0,0,.02,0,.03,0,0,0,.07-.06.2-.18l.22.37-.02.33c.24.05.38.09.44.12.05.03.11.09.16.2.06.11.17.35.33.72l1.45,1.78.35.67,2.28,3.1.61,1.13.64.79.31.48.15.12-.02.44-.21.23-.4.03c-.19.04-.35.06-.49.06-.12,0-.22-.02-.3-.05-.17-.07-.32-.23-.45-.5.07-.19.11-.32.1-.38l-.07-.23-.12.17c-.06-.03-.09-.07-.11-.12s-.02-.1-.02-.13c0-.02,0-.06,0-.14h-.18s-.11-.25-.11-.25l-.29-.67-.56-.8-.31-.59-.18-.32-.12-.59-.27-.35-.09.08-.18-.28-.62-.82-.26-.5c-.13-.37-.22-.6-.26-.68-.04-.07-.08-.1-.14-.1-.01,0-.03,0-.04,0-.03,0-.08.04-.17.1l-.13-.25-.37-.49-.05-.5c-.03-.1-.11-.14-.26-.14-.05,0-.1,0-.16.02-.06-.15-.1-.25-.12-.3-.02-.06-.02-.1-.02-.12l.03-.36s-.07-.02-.11-.03c-.04-.01-.07-.02-.09-.02-.14-.04-.23-.08-.26-.11-.03-.03-.15-.18-.34-.45l-.43-.5-.39-.65-.36-.41c.05-.1.06-.18.04-.25-.03-.11-.18-.26-.45-.44-.15-.12-.27-.28-.38-.49l-.68-.93c-.04-.19-.06-.3-.07-.33-.03-.1-.07-.17-.11-.19-.04-.02-.1-.03-.18-.03-.02,0-.03,0-.05,0l-.19-.31-.22-.31-1.24-1.41-.09-.44-.25-.12c-.06-.03-.15-.13-.26-.3l-.33-.56-1.01-1.24-.27-.55-.14-.2-.23.07-.79-.79-.31-.4-.28-.29c.04-.18.09-.3.16-.37.07-.07.18-.12.33-.17.15-.04.31-.07.49-.07M7.72,3.21h0c-.27,0-.54.04-.78.11-.32.09-.56.23-.75.41-.21.21-.36.49-.44.87l-.12.52.37.39.25.26.28.36.04.05.04.04.79.79.42.42h.03s0,0,0,0l.05.1.07.09.96,1.18.29.5c.12.2.27.41.47.56l.05.25.18.2,1.2,1.37.17.24.17.28.31.5h.07s.08.11.08.11l.64.87c.15.27.32.49.52.67l-.07.14.43.49.3.34.34.58.04.07.05.06.4.47c.29.4.35.48.43.56.05.05.11.09.16.13,0,.03.02.06.02.08.02.06.07.2.15.4l.31.74.17-.03.1.14.32.42.09.18.54,1.05.19-.14.14.27.04.07.05.07.6.79.16.25.34.53.03.14.08.14.18.32.31.58.03.05.03.05.5.72.26.58.12.26.27.57h.01s.12.26.12.26c.24.51.58.85,1,1.02.19.07.41.11.65.11.19,0,.4-.02.63-.07l.33-.03.39-.03.26-.29.21-.23.24-.26.02-.36.02-.44.03-.5-.38-.32-.03-.03-.23-.35-.03-.05-.03-.04-.58-.72-.57-1.05-.03-.06-.04-.06-2.24-3.04-.31-.6-.05-.09-.06-.08-1.36-1.68c-.15-.32-.24-.54-.3-.64-.15-.3-.34-.5-.58-.63l-.05-.08-.22-.37-.65-1.09-.09.09-.08-.09-.52-.65-.53-.85-.03-.05-.04-.05-.26-.33-.69-.85.02-.06-.28-.38-1.19-1.61-.23-.31-.1-.02c-.06-.14-.15-.27-.25-.39l-.77-.95-.34-.61-.04-.08-.05-.07-.25-.31-.18-.27-.54-.83-.07.04h0s-.28-.51-.28-.51l-.08-.21-.17-.42-.31-.11-.17-.38-.55-.13c-.21-.04-.42-.05-.61-.05h0Z"/>
  </g>
  <g>
    <path class="cls-1" d="M6.49,25.07c-.23,0-.5-.06-.82-.18l-.51-.12-.38-.57.09-.87.32-.19.33-.37.79-.72.72-.95,2.79-2.75.4-.54,1.73-1.56c.21-.32.35-.53.42-.63.14-.19.29-.31.45-.36.04-.01.08-.02.15-.03v-.07s.79-.93.79-.93l.05.08c.04-.07.09-.14.16-.21l.31-.27.67-.6.65-.75,1.03-.93v.02s.24-.24.24-.24l.1.03-.02-.18,1.73-1.7h.2s.03-.08.04-.12c.07-.14.16-.26.29-.36l.96-.87.43-.55.39-.36.54-.61.14.12.24-.41.44-.56.23-.39.22-.04c.08-.02.11-.04.17-.13l.15-.22h.27c.46,0,.83.07,1.14.22.22.1.38.22.49.37.12.16.18.37.2.66l.02.27-.54.41-.33.31-1.19.86-.15-.07-.27.39-1.23,1.1-.37.45c-.22.25-.38.38-.56.42l-.12.31-1.55,1.28-.22.24-.41.48-.16-.03s-.09.24-.09.24l-.9.89c-.13.19-.34.38-.56.5-.12.06-.2.1-.25.13l.06.21-.25.22-.42.35-.42.52-.56.49c-.24.25-.4.39-.44.42-.07.05-.16.09-.29.12,0,.07-.04.16-.08.25-.03.06-.09.17-.19.33l-.21.34-.25-.09-.07.3-.54.52-.12.17-.35.47-.19-.19c-.04.07-.08.15-.13.23l-.37.51-.8.78-.6.67-.03-.04-.11.29-.28.35-.4.53-.71.75-.34.54-.33.49h-.07c-.04.05-.1.12-.18.18l.03.14-.12.18c-.24.36-.52.57-.84.64-.07.01-.15.02-.23.02Z"/>
    <path class="cls-1" d="M23.4,5.46c.36,0,.66.06.9.17.15.07.25.14.3.22.06.08.09.21.1.39l-.32.25-.37.34-.9.65-.22-.1-.17.17-.36.5-1.19,1.06-.42.5c-.13.15-.23.24-.3.26l-.26.08-.15.42-1.45,1.2-.26.27-.23.27c-.06-.01-.11-.02-.15-.02-.03,0-.06,0-.08.01-.05.02-.09.07-.14.17-.01.02-.05.13-.12.31l-.82.81c-.14.19-.29.33-.45.42-.29.14-.46.26-.51.36-.03.06-.03.15,0,.25l-.42.35-.49.58-.5.43c-.23.24-.37.37-.4.39-.04.03-.13.05-.28.07-.02,0-.05,0-.09,0s-.08,0-.11.01l-.02.36s-.01.06-.04.11c-.02.05-.08.14-.16.28-.09-.03-.17-.05-.23-.05-.1,0-.16.04-.2.11l-.13.49-.44.43-.17.23c-.07-.07-.12-.12-.15-.13-.02,0-.04-.01-.06-.01-.04,0-.09.03-.13.08-.06.08-.18.29-.37.63l-.33.45-.74.71-.22.25-.07-.09-.32.31-.21.57-.23.29-.4.53-.68.7-.4.61-.15.22-.18-.03c0,.08-.01.12-.02.14,0,.04-.02.08-.05.13s-.06.08-.12.1l-.09-.19-.1.22c-.02.06,0,.19.04.39-.17.25-.34.39-.52.43-.04,0-.08.01-.13.01-.17,0-.38-.05-.64-.15l-.39-.09-.17-.26.05-.44.17-.1.38-.43.75-.68.78-1.02,2.74-2.7.45-.6,1.71-1.53c.22-.34.37-.56.44-.66s.14-.16.19-.17c.06-.02.21-.03.45-.04l.04-.32.28-.33c.1.14.16.21.17.21.01,0,.03,0,.04,0,.09,0,.2-.14.33-.41l-.07-.12c.02-.08.04-.14.05-.17.02-.03.04-.07.08-.11l.28-.24.68-.61.69-.8.31-.28c.01.08.04.12.08.14,0,0,0,0,0,0,.02,0,.1-.05.24-.14.03-.04.09-.08.19-.12v-.31s.2-.2.2-.2c.07.02.14.04.19.04.11,0,.18-.04.22-.13.01-.02.02-.06.04-.11.01-.11.02-.22,0-.32l1.42-1.4.4-.02c.02-.17.05-.29.09-.37.03-.07.08-.13.15-.18l.99-.89.49-.61.34-.3.25-.28.15.13.13-.09.19-.27.3-.51.4-.5.15-.25c.12-.02.21-.06.28-.1.07-.05.14-.13.21-.24,0,0,.02,0,.03,0M23.4,4.46h-.03s-.54,0-.54,0l-.25.38-.32.06-.24.39-.12.19-.36.45h0s-.06-.05-.06-.05l-.66.74-.22.24-.3.26-.06.06-.05.07-.43.55-.91.82c-.12.1-.23.22-.31.35h-.1s-.27.27-.27.27l-1.42,1.4-.34.33v.06s-.81.73-.81.73l-.31.28-.05.04-.04.05-.65.75-.63.57-.08.07-.08-.11-.81.97-.28.33-.06.07c-.26.09-.47.26-.67.53-.07.09-.2.29-.4.59l-1.61,1.44-.07.07-.06.08-.4.54-2.69,2.65-.05.05-.04.06-.73.95-.69.62-.04.04-.04.04-.28.31-.03.02-.43.26-.05.5-.05.44-.04.36.2.3.17.26.22.33.38.09.33.08c.35.13.66.19.94.19.12,0,.23-.01.33-.03.45-.09.83-.38,1.15-.85l.16-.24h.01s.35-.52.35-.52l.15-.22.35-.55.61-.63.04-.04.04-.05.4-.53.22-.28.09-.12.05-.13.42-.47.2-.22.71-.69.06-.06.05-.07.18-.24.16.17.7-.95.12-.16.38-.37.12-.12.16.06.43-.68c.12-.19.19-.31.22-.38.01-.02.02-.04.03-.07.07-.03.13-.07.19-.11.08-.06.16-.12.5-.47l.47-.4.06-.06.05-.07.43-.51.35-.29.5-.42-.04-.15c.23-.14.44-.34.62-.58l.77-.76.1-.1h.06s.39-.43.39-.43l.22-.25.2-.21,1.4-1.16.21-.17.09-.23c.22-.12.4-.3.54-.47l.38-.46,1.14-1.02.08-.07.06-.09h0s.03.01.03.01l.48-.35.9-.65.05-.04.04-.04.34-.31.29-.22.43-.32-.03-.54c-.02-.38-.12-.69-.3-.93-.16-.21-.38-.39-.68-.53-.38-.18-.83-.27-1.33-.27h0Z"/>
  </g>
</svg>