<?xml version="1.0" encoding="UTF-8"?>
<svg id="Layer_1" data-name="Layer 1" xmlns="http://www.w3.org/2000/svg" viewBox="0 0 31.9 22.45">
  <defs>
    <style>
      .cls-1 {
        fill: #878787;
        stroke-width: 0px;
      }
    </style>
  </defs>
  <path class="cls-1" d="M15.41,19.02c0-2.82-1.81-4.85-5.37-6.02-2.74-.9-5.54-.94-5.74-.94h-.01s0,0,0,0c0,0,0,0,0,0,0,0,0,0-.01,0h0s0,0,0,0c-.03,0-.05,0-.07,0-.03,0-.05,0-.08-.01-.03,0-.05-.02-.08-.02-.03,0-.05-.01-.08-.03-.02-.01-.05-.03-.07-.04-.02-.01-.05-.02-.07-.04-.02-.02-.04-.03-.06-.05-.02-.02-.04-.03-.06-.05-.02-.02-.03-.04-.05-.06-.02-.02-.03-.04-.05-.06-.02-.02-.03-.05-.04-.08-.01-.02-.02-.04-.03-.06-.01-.03-.02-.06-.03-.1,0-.02-.01-.04-.02-.06-.01-.05-.02-.11-.02-.16,0,0,0,0,0,0h0c0-.46.37-.83.83-.83h0c.07,0,2.94-.02,5.75-.94,3.56-1.17,5.37-3.19,5.37-6.02,0-.46.37-.83.83-.83s.83.37.83.83c0,3.09-1.68,5.47-4.89,6.96h15.42c.46,0,.83.37.83.83s-.37.83-.83.83h-15.42c3.21,1.49,4.89,3.87,4.89,6.96,0,.46-.37.83-.83.83s-.83-.37-.83-.83Z"/>
</svg>